<svg width="28" height="10" viewBox="0 0 28 10" fill="none" xmlns="http://www.w3.org/2000/svg">
<path fill-rule="evenodd" clip-rule="evenodd" d="M3.50625 1.86686H0.866699V0H8.05475V1.86686H5.4152V9.90002H3.50625V1.86686ZM15.6502 7.77859H11.1863L10.3348 9.90002H8.05475L12.3401 0H14.5377L18.8367 9.90002H16.5018L15.6502 7.77859ZM14.8701 5.79999L13.4458 1.79999L11.8495 5.79999H14.8701ZM23.9346 9.90002C22.9751 9.90002 22.1075 9.68808 21.3318 9.26418C20.5562 8.84028 19.9464 8.2523 19.5025 7.50023C19.0587 6.74815 18.8367 5.89809 18.8367 4.95001C18.8367 4.00194 19.0587 3.15188 19.5025 2.3998C19.9464 1.64772 20.5562 1.05974 21.3318 0.635844C22.1075 0.211946 22.9796 0 23.948 0C24.764 0 25.5016 0.145855 26.1607 0.43757C26.8198 0.729285 27.3735 1.14862 27.8218 1.69558L26.423 3.00829C25.7863 2.26078 24.9972 1.88702 24.0556 1.88702C23.4728 1.88702 22.9527 2.01692 22.4953 2.27673C22.038 2.53654 21.6816 2.8989 21.426 3.36382C21.1704 3.82874 21.0427 4.35747 21.0427 4.95001C21.0427 5.54256 21.1704 6.07128 21.426 6.5362C21.6816 7.00112 22.038 7.36348 22.4953 7.62329C22.9527 7.8831 23.4728 8.013 24.0556 8.013C24.9972 8.013 25.7863 7.63469 26.423 6.87806L27.8218 8.19077C27.3735 8.74685 26.8175 9.17074 26.1539 9.46245C25.4904 9.75417 24.7506 9.90002 23.9346 9.90002Z" fill="#FF2626"/>
</svg>
